<?xml version="1.0" encoding="utf-8"?>
<!-- Generator: Adobe Illustrator 22.0.1, SVG Export Plug-In . SVG Version: 6.00 Build 0)  -->
<svg version="1.1" id="Layer_1" xmlns="http://www.w3.org/2000/svg" xmlns:xlink="http://www.w3.org/1999/xlink" x="0px" y="0px"
	 viewBox="0 0 810.5 518" style="enable-background:new 0 0 810.5 518;" xml:space="preserve">
<style type="text/css">
	.st0{fill:#29323B;}
	.st1{fill:#FAF096;}
</style>
<path class="st0" d="M0-3.2h847.5v701.6H0V-3.2z"/>
<path class="st1" d="M162.1,120.4l4.5,1l-4.5,1l-1.3,4.8l-1.3-4.8l-4.5-1l4.5-1l1.3-4.8 M262,356.5l4.5,1l-4.5,1l-1.3,4.8l-1.3-4.8
	l-4.5-1l4.5-1l1.3-4.8 M475.8,328.3l3.5,0.8l-3.5,0.8l-1,3.7l-1-3.7l-3.5-0.8l3.5-0.8l1-3.7 M599.7,203.3l3.5,0.8l-3.5,0.8l-1,3.7
	l-1-3.7l-3.5-0.8l3.5-0.8l1-3.7 M557.1,563.4l4.5,1l-4.5,1l-1.3,4.8l-1.3-4.8l-4.5-1l4.5-1l1.3-4.8 M436.7,198.5l4.5,1l-4.5,1
	l-1.3,4.8l-1.3-4.8l-4.5-1l4.5-1l1.3-4.8 M150.5,250.2l4.5,1l-4.5,1l-1.3,4.8l-1.3-4.8l-4.5-1l4.5-1l1.3-4.8 M126.8,651.4l4.5,1
	l-4.5,1l-1.3,4.8l-1.3-4.8l-4.5-1l4.5-1l1.3-4.8 M370.9,597.6l3.5,0.8l-3.5,0.8l-1,3.7l-1-3.7l-3.5-0.8l3.5-0.8l1-3.7 M755,145.4
	l3.5,0.8L755,147l-1,3.7l-1-3.7l-3.5-0.8l3.5-0.8l1-3.7 M717.2,38l3.5,0.8l-3.5,0.8l-1,3.7l-1-3.7l-3.5-0.8l3.5-0.8l1-3.7
	 M43.2,500.5l3.5,0.8l-3.5,0.8l-1,3.7l-1-3.7l-3.5-0.8l3.5-0.8l1-3.7 M351.6,250l5.3,1.2l-5.3,1.2l-1.5,5.6l-1.5-5.6l-5.3-1.2
	l5.3-1.2l1.5-5.6 M604.7,339.2l5.3,1.2l-5.3,1.2l-1.5,5.6l-1.5-5.6l-5.3-1.2l5.3-1.2l1.5-5.6 M379,493.3l5.3,1.2l-5.3,1.2l-1.5,5.6
	l-1.5-5.6l-5.3-1.2l5.3-1.2l1.5-5.6 M208.4,38l3.5,0.8l-3.5,0.8l-1,3.7l-1-3.7l-3.5-0.8l3.5-0.8l1-3.7 M178,453.2l3.5,0.8l-3.5,0.8
	l-1,3.7l-1-3.7l-3.5-0.8l3.5-0.8l1-3.7 M750.5,453.2l3.5,0.8l-3.5,0.8l-1,3.7l-1-3.7L745,454l3.5-0.8l1-3.7 M531.7,74.5l3.5,0.8
	l-3.5,0.8l-1,3.7l-1-3.7l-3.5-0.8l3.5-0.8l1-3.7 M350.3,69.7l4.5,1l-4.5,1l-1.3,4.8l-1.3-4.8l-4.5-1l4.5-1l1.3-4.8 M651.6,423.4
	l5.3,1.2l-5.3,1.2l-1.5,5.6l-1.5-5.6l-5.3-1.2l5.3-1.2l1.5-5.6 M651.6,97.1l5.3,1.2l-5.3,1.2l-1.5,5.6l-1.5-5.6l-5.3-1.2l5.3-1.2
	l1.5-5.6 M338.5,408.4l3.5,0.8l-3.5,0.8l-1,3.7l-1-3.7l-3.5-0.8l3.5-0.8l1-3.7 M96.7,381.1l3.5,0.8l-3.5,0.8l-1,3.7l-1-3.7l-3.5-0.8
	l3.5-0.8l1-3.7 M678.3,286.6l3.5,0.8l-3.5,0.8l-1,3.7l-1-3.7l-3.5-0.8l3.5-0.8l1-3.7 M43.2,42.5l3.5,0.8l-3.5,0.8l-1,3.7l-1-3.7
	l-3.5-0.8l3.5-0.8l1-3.7 M55,174l5.3,1.2l-5.3,1.2l-1.5,5.6l-1.5-5.6l-5.3-1.2L52,174l1.5-5.6 M511.7,435.1l3.5,0.8l-3.5,0.8l-1,3.7
	l-1-3.7l-3.5-0.8l3.5-0.8l1-3.7 M267.5,203.3l3.5,0.8l-3.5,0.8l-1,3.7l-1-3.7l-3.5-0.8l3.5-0.8l1-3.7 M764.5,250.4l3.5,0.8l-3.5,0.8
	l-1,3.7l-1-3.7l-3.5-0.8l3.5-0.8l1-3.7"/>
</svg>
