<?xml version="1.0" encoding="utf-8"?>
<!-- Generator: Adobe Illustrator 22.0.1, SVG Export Plug-In . SVG Version: 6.00 Build 0)  -->
<svg version="1.1" id="Capa_1" xmlns="http://www.w3.org/2000/svg" xmlns:xlink="http://www.w3.org/1999/xlink" x="0px" y="0px"
	 viewBox="0 0 438.8 438.8" style="enable-background:new 0 0 438.8 438.8;" xml:space="preserve">
<style type="text/css">
	.st0{fill:#1B1B00;}
	.st1{fill:#DB0000;}
	.st2{fill:#0029E7;}
</style>
<g>
	<g>
		<g>
			<g>
				<g>
					<path class="st0" d="M64.4,38.9c-2.3-2.3-5.3-3.7-8.8-3.7c-3.4,0-6.6,1.3-8.8,3.6c-2.3,2.3-3.7,5.3-3.7,8.8
						c0,3.4,1.3,6.6,3.6,8.8c2.3,2.3,5.3,3.7,8.8,3.7c3.4,0,6.6-1.3,8.8-3.6c2.3-2.4,3.7-5.5,3.7-8.8C68,44.3,66.7,41.1,64.4,38.9z
						 M61.6,53.6c-1.5,1.5-3.7,2.5-6,2.5c-2.3,0-4.5-1-6-2.6s-2.5-3.7-2.5-6s1-4.5,2.6-6c1.6-1.5,3.7-2.5,6-2.5s4.5,1,6,2.6
						c1.5,1.6,2.5,3.7,2.5,6C64.2,49.9,63.2,52.1,61.6,53.6z"/>
				</g>
				<g>
					<path class="st0" d="M92.6,104.2c0-5.2-1.6-10.1-4.3-14c-2.5-3.7-6.1-6.6-10.2-8.5c1.4-14.7,0.9-29-1.7-40.6
						c-3.1-13.5-9.1-23.4-18-25.9c-0.7-0.2-1.5-0.3-2.3-0.5c-0.1-0.1-0.1,0-0.2-0.1c-0.1,0-0.2,0.1-0.3,0c-0.8,0.1-1.6,0.3-2.3,0.4
						c-8.9,2.5-15,12.3-18.4,25.7c-2.8,11.5-3.6,25.8-2.2,40.5c-4.4,1.9-7.9,4.7-10.5,8.4c-2.8,3.9-4.5,8.8-4.5,14
						c0,3.1,0.5,6.2,1.7,9c1.1,2.9,2.8,5.5,4.8,7.7c0.8,0.8,1.9,0.8,2.8,0.1c0.3-0.3,0.5-0.6,0.5-1c0.5-2.7,2-5.1,4.2-6.8
						c2.1-1.7,4.7-2.7,7.5-2.7h1.9v0.6c0,1.8,0.7,3.6,1.9,4.8s2.9,2,4.8,2h0.3v3.2c0,1.9,0.8,3.6,2,4.9c1.2,1.3,2.9,2,4.8,2
						c1.9,0,3.6-0.8,4.9-2c1.2-1.2,2-2.8,2-4.7v-3.3h0.3c1.8,0,3.6-0.7,4.8-1.9c1.2-1.2,2-2.8,2-4.6v-0.7h1.9c2.9,0,5.5,1,7.5,2.8
						c2.1,1.7,3.5,4.1,4.1,6.9c0.1,0.4,0.3,0.8,0.5,1c0.8,0.8,2,0.7,2.8,0c2.4-2,4.1-4.6,5.2-7.5C92,110.4,92.7,107.4,92.6,104.2z
						 M29.4,110c-1.9,1.3-3.3,3.1-4.3,5.3c-0.8-1.2-1.4-2.5-2-3.8c-0.9-2.3-1.4-4.9-1.4-7.5c0-4.4,1.4-8.5,3.8-11.7
						c2-2.7,4.5-5,7.5-6.5l0.1,0.6c0.1,0.5,0.1,0.8,0.2,1.2c0.8,6.4,2,12.8,3.6,19.1C34.1,107.1,31.5,108.3,29.4,110z M48.4,113.9
						l-0.3-0.1c-0.8,0-1.5-0.3-2-0.9c-0.5-0.5-0.8-1.2-0.8-2v-0.6h3.1V113.9z M48.4,106.3H41c-1.3-5-2.4-10.1-3.2-15.3l10.8,0.1
						L48.4,106.3z M58,113.9v7.1c0.1,0.9-0.3,1.5-0.8,2s-1.3,0.9-2.1,0.9c-0.8,0-1.6-0.4-2.1-0.9s-0.9-1.3-0.9-2.1v-12.7l0.1-25
						c0-0.8,0.4-1.6,0.9-2.1s1.3-0.9,2.1-0.9s1.6,0.4,2.1,0.9s0.9,1.3,0.9,2.1L58,113.9z M60.2,77.9c-1.2-1.3-2.9-2-4.8-2
						c-1.9,0-3.6,0.8-4.9,2c-1.2,1.2-2,2.9-2,4.8v3.9H37.2l-0.1-0.2c-0.1-0.5-0.1-0.8-0.2-1.2c-0.1-0.7-0.1-1.4-0.2-2.1
						c-1.6-15-0.9-29.6,1.9-41.2c3-12.1,8.2-20.9,15.6-22.9c0.5-0.1,1-0.3,1.5-0.3c0.5,0.1,1,0.2,1.5,0.3c7.4,2.1,12.5,11,15.4,23.1
						c2.7,11.6,3.2,26.2,1.4,41.1c-0.1,0.7-0.1,1.4-0.3,2.2c-0.1,0.5-0.1,0.8-0.2,1.2v0.1H62.2v-3.9C62.2,80.9,61.4,79.2,60.2,77.9z
						 M64.4,113c-0.5,0.5-1.2,0.8-2,0.8l-0.3,0.1v-3.6h3.1l0.1,0.7C65.2,111.8,64.9,112.5,64.4,113z M69.6,106.4h-7.5V91l10.8,0.1
						C72,96.2,71,101.4,69.6,106.4z M87.2,111.7c-0.6,1.4-1.2,2.6-2,3.8c-0.9-2.1-2.3-3.9-4.2-5.4c-2.1-1.8-4.7-2.9-7.5-3.4
						c1.7-6.2,3-12.6,3.9-19c0.1-0.5,0.1-0.8,0.2-1.2l0.1-0.6c3,1.6,5.6,3.8,7.4,6.6c2.3,3.4,3.7,7.3,3.6,11.7
						C88.7,106.9,88.2,109.4,87.2,111.7z"/>
				</g>
				<g>
					<path class="st1" d="M72.9,91.1c-0.9,5.1-1.9,10.3-3.3,15.3h-7.5V91L72.9,91.1z"/>
				</g>
				<g>
					<path class="st1" d="M45.3,110.3h3.1v3.6l-0.3-0.1c-0.8,0-1.5-0.3-2-0.9c-0.5-0.5-0.8-1.2-0.8-2V110.3z"/>
				</g>
				<g>
					<path class="st1" d="M65.3,111c-0.1,0.8-0.4,1.5-0.9,2s-1.2,0.8-2,0.8l-0.3,0.1v-3.6h3.1L65.3,111z"/>
				</g>
				<g>
					<path class="st1" d="M48.6,91.1l-0.2,15.2H41c-1.3-5-2.4-10.1-3.2-15.3L48.6,91.1z"/>
				</g>
				<g>
					<path class="st2" d="M36.9,106.7c-2.8,0.4-5.4,1.6-7.5,3.3c-1.9,1.3-3.3,3.1-4.3,5.3c-0.8-1.2-1.4-2.5-2-3.8
						c-0.9-2.3-1.4-4.9-1.4-7.5c0-4.4,1.4-8.5,3.8-11.7c2-2.7,4.5-5,7.5-6.5l0.1,0.6c0.1,0.5,0.1,0.8,0.2,1.2
						C34.1,94,35.3,100.4,36.9,106.7z"/>
				</g>
				<g>
					<path class="st2" d="M88.7,104.2c0,2.7-0.5,5.2-1.5,7.5c-0.6,1.4-1.2,2.6-2,3.8c-0.9-2.1-2.3-3.9-4.2-5.4
						c-2.1-1.8-4.7-2.9-7.5-3.4c1.7-6.2,3-12.6,3.9-19c0.1-0.5,0.1-0.8,0.2-1.2l0.1-0.6c3,1.6,5.6,3.8,7.4,6.6
						C87.4,95.9,88.8,99.8,88.7,104.2z"/>
				</g>
				<g>
					<path class="st2" d="M58.2,83.2L58,113.9v7.1c0.1,0.9-0.3,1.5-0.8,2s-1.3,0.9-2.1,0.9c-0.8,0-1.6-0.4-2.1-0.9s-0.9-1.3-0.9-2.1
						v-12.7l0.1-25c0-0.8,0.4-1.6,0.9-2.1s1.3-0.9,2.1-0.9s1.6,0.4,2.1,0.9S58.2,82.4,58.2,83.2z"/>
				</g>
				<g>
					<path class="st1" d="M72.6,42.1c-2.9-12.1-8-21-15.4-23.1c-0.5-0.1-1-0.2-1.5-0.3c-0.5,0-1,0.2-1.5,0.3
						c-7.4,2-12.6,10.8-15.6,22.9c-2.8,11.6-3.5,26.2-1.9,41.2c0.1,0.7,0.1,1.4,0.2,2.1c0.1,0.4,0.1,0.7,0.2,1.2l0.1,0.2h11.3v-3.9
						c0-1.9,0.8-3.6,2-4.8c1.3-1.2,3-2,4.9-2c1.9,0,3.6,0.7,4.8,2c1.2,1.3,2,3,2,4.9v3.9h11.3v-0.1c0.1-0.4,0.1-0.7,0.2-1.2
						c0.2-0.8,0.2-1.5,0.3-2.2C75.8,68.3,75.3,53.7,72.6,42.1z M64.3,56.5c-2.2,2.3-5.4,3.6-8.8,3.6c-3.5,0-6.5-1.4-8.8-3.7
						c-2.3-2.2-3.6-5.4-3.6-8.8c0-3.5,1.4-6.5,3.7-8.8c2.2-2.3,5.4-3.6,8.8-3.6c3.5,0,6.5,1.4,8.8,3.7c2.3,2.2,3.6,5.4,3.6,8.8
						C68,51,66.6,54.1,64.3,56.5z"/>
				</g>
				<g>
					<path class="st2" d="M64.2,47.6c0,2.3-1,4.5-2.6,6c-1.5,1.5-3.7,2.5-6,2.5c-2.3,0-4.5-1-6-2.6s-2.5-3.7-2.5-6s1-4.5,2.6-6
						c1.6-1.5,3.7-2.5,6-2.5s4.5,1,6,2.6C63.2,43.2,64.2,45.3,64.2,47.6z"/>
				</g>
			</g>
		</g>
	</g>
</g>
</svg>
