<svg xmlns="http://www.w3.org/2000/svg" viewBox="0 0 74.91 112.8"><defs><style>.cls-1{fill:#1b1b00;}.cls-2{fill:#db0000;}.cls-3{fill:#0029e7;}</style></defs><title>Asset 2</title><g id="Layer_2" data-name="Layer 2"><g id="Capa_1" data-name="Capa 1"><path class="cls-1" d="M46.7,24.3A12.45,12.45,0,0,0,25.4,33,12.46,12.46,0,0,0,37.8,45.5a12.15,12.15,0,0,0,8.8-3.6,12.77,12.77,0,0,0,3.7-8.8A12.15,12.15,0,0,0,46.7,24.3ZM43.9,39a8.64,8.64,0,0,1-6,2.5,8.31,8.31,0,0,1-6-2.6,8.83,8.83,0,0,1-2.5-6,8.31,8.31,0,0,1,2.6-6,8.83,8.83,0,0,1,6-2.5A8.31,8.31,0,0,1,44,27a8.83,8.83,0,0,1,2.5,6A8.31,8.31,0,0,1,43.9,39Z"/><path class="cls-1" d="M74.9,89.6A24.49,24.49,0,0,0,60.4,67.1c1.4-14.7.9-29-1.7-40.6C55.6,13,49.6,3.1,40.7.6,40,.4,39.2.3,38.4.1c-.1-.1-.1,0-.2-.1s-.2.1-.3,0c-.8.1-1.6.3-2.3.4-8.9,2.5-15,12.3-18.4,25.7C14.4,37.6,13.6,51.9,15,66.6A24.41,24.41,0,0,0,0,89a22.88,22.88,0,0,0,1.7,9,24.41,24.41,0,0,0,4.8,7.7,2,2,0,0,0,2.8.1,1.39,1.39,0,0,0,.5-1A11.17,11.17,0,0,1,14,98a11.88,11.88,0,0,1,7.5-2.7h1.9v.6a6.9,6.9,0,0,0,1.9,4.8,6.8,6.8,0,0,0,4.8,2h.3v3.2a7.23,7.23,0,0,0,2,4.9,6.41,6.41,0,0,0,4.8,2,7.23,7.23,0,0,0,4.9-2,6.56,6.56,0,0,0,2-4.7v-3.3h.3a6.9,6.9,0,0,0,4.8-1.9,6.51,6.51,0,0,0,2-4.6v-.7h1.9a11,11,0,0,1,7.5,2.8,11.94,11.94,0,0,1,4.1,6.9,2.34,2.34,0,0,0,.5,1,2,2,0,0,0,2.8,0,17.86,17.86,0,0,0,5.2-7.5A24.21,24.21,0,0,0,74.9,89.6ZM11.7,95.4a12.5,12.5,0,0,0-4.3,5.3,27.54,27.54,0,0,1-2-3.8A20.82,20.82,0,0,1,4,89.4,19.5,19.5,0,0,1,7.8,77.7a21.32,21.32,0,0,1,7.5-6.5l.1.6c.1.5.1.8.2,1.2a156.64,156.64,0,0,0,3.6,19.1A15.48,15.48,0,0,0,11.7,95.4Zm19,3.9-.3-.1a2.52,2.52,0,0,1-2-.9,2.79,2.79,0,0,1-.8-2v-.6h3.1Zm0-7.6H23.3a153.66,153.66,0,0,1-3.2-15.3l10.8.1Zm9.6,7.6v7.1a2.32,2.32,0,0,1-.8,2,3,3,0,0,1-5.1-2.1V93.6l.1-25a3,3,0,0,1,6,0Zm2.2-36a6.41,6.41,0,0,0-4.8-2,7.23,7.23,0,0,0-4.9,2,6.8,6.8,0,0,0-2,4.8V72H19.5l-.1-.2c-.1-.5-.1-.8-.2-1.2-.1-.7-.1-1.4-.2-2.1-1.6-15-.9-29.6,1.9-41.2,3-12.1,8.2-20.9,15.6-22.9A8,8,0,0,1,38,4.1l1.5.3c7.4,2.1,12.5,11,15.4,23.1,2.7,11.6,3.2,26.2,1.4,41.1a19.19,19.19,0,0,1-.3,2.2c-.1.5-.1.8-.2,1.2v.1H44.5V68.2A7.23,7.23,0,0,0,42.5,63.3Zm4.2,35.1a2.79,2.79,0,0,1-2,.8l-.3.1V95.7h3.1l.1.7A3.37,3.37,0,0,1,46.7,98.4Zm5.2-6.6H44.4V76.4l10.8.1C54.3,81.6,53.3,86.8,51.9,91.8Zm17.6,5.3a22.8,22.8,0,0,1-2,3.8,13.69,13.69,0,0,0-4.2-5.4,15.62,15.62,0,0,0-7.5-3.4,152.37,152.37,0,0,0,3.9-19c.1-.5.1-.8.2-1.2l.1-.6A20.63,20.63,0,0,1,71,89.6,18.61,18.61,0,0,1,69.5,97.1Z"/><path class="cls-2" d="M55.2,76.5c-.9,5.1-1.9,10.3-3.3,15.3H44.4V76.4Z"/><path class="cls-2" d="M27.6,95.7h3.1v3.6l-.3-.1a2.52,2.52,0,0,1-2-.9,2.79,2.79,0,0,1-.8-2Z"/><path class="cls-2" d="M47.6,96.4a3.37,3.37,0,0,1-.9,2,2.79,2.79,0,0,1-2,.8l-.3.1V95.7h3.1Z"/><path class="cls-2" d="M30.9,76.5l-.2,15.2H23.3a153.66,153.66,0,0,1-3.2-15.3Z"/><path class="cls-3" d="M19.2,92.1a15.48,15.48,0,0,0-7.5,3.3,12.5,12.5,0,0,0-4.3,5.3,27.54,27.54,0,0,1-2-3.8A20.82,20.82,0,0,1,4,89.4,19.5,19.5,0,0,1,7.8,77.7a21.32,21.32,0,0,1,7.5-6.5l.1.6c.1.5.1.8.2,1.2A156.64,156.64,0,0,0,19.2,92.1Z"/><path class="cls-3" d="M71,89.6a18.61,18.61,0,0,1-1.5,7.5,22.8,22.8,0,0,1-2,3.8,13.69,13.69,0,0,0-4.2-5.4,15.62,15.62,0,0,0-7.5-3.4,152.37,152.37,0,0,0,3.9-19c.1-.5.1-.8.2-1.2l.1-.6A20.63,20.63,0,0,1,71,89.6Z"/><path class="cls-3" d="M40.5,68.6l-.2,30.7v7.1a2.32,2.32,0,0,1-.8,2,3,3,0,0,1-5.1-2.1V93.6l.1-25a3,3,0,0,1,6,0Z"/><path class="cls-2" d="M54.9,27.5c-2.9-12.1-8-21-15.4-23.1L38,4.1a8,8,0,0,0-1.5.3c-7.4,2-12.6,10.8-15.6,22.9C18.1,38.9,17.4,53.5,19,68.5c.1.7.1,1.4.2,2.1.1.4.1.7.2,1.2l.1.2H30.8V68.1a6.8,6.8,0,0,1,2-4.8,7.23,7.23,0,0,1,4.9-2,6.41,6.41,0,0,1,4.8,2,7.23,7.23,0,0,1,2,4.9v3.9H55.8V72c.1-.4.1-.7.2-1.2a19.19,19.19,0,0,0,.3-2.2C58.1,53.7,57.6,39.1,54.9,27.5ZM46.6,41.9A12.43,12.43,0,0,1,29,41.8a12.43,12.43,0,0,1,.1-17.6,12.43,12.43,0,0,1,17.6.1,12.15,12.15,0,0,1,3.6,8.8A12.77,12.77,0,0,1,46.6,41.9Z"/><path class="cls-3" d="M46.5,33a8.31,8.31,0,0,1-2.6,6,8.64,8.64,0,0,1-6,2.5,8.31,8.31,0,0,1-6-2.6,8.83,8.83,0,0,1-2.5-6,8.31,8.31,0,0,1,2.6-6,8.83,8.83,0,0,1,6-2.5A8.31,8.31,0,0,1,44,27,8.83,8.83,0,0,1,46.5,33Z"/></g></g></svg>