<?xml version="1.0" encoding="utf-8"?>
<!-- Generator: Adobe Illustrator 22.0.1, SVG Export Plug-In . SVG Version: 6.00 Build 0)  -->
<svg version="1.1" id="Capa_1" xmlns="http://www.w3.org/2000/svg" xmlns:xlink="http://www.w3.org/1999/xlink" x="0px" y="0px"
	 viewBox="0 0 438.8 438.8" style="enable-background:new 0 0 438.8 438.8;" xml:space="preserve">
<style type="text/css">
	.st0{fill:#1B1B1B;}
</style>
<g>
	<g>
		<g>
			<path class="st0" d="M67.7,47.4c0-3.4-1.3-6.6-3.6-8.8c-2.3-2.3-5.3-3.7-8.8-3.7c-3.4,0-6.6,1.3-8.8,3.6
				c-2.3,2.3-3.7,5.3-3.7,8.8c0,3.4,1.3,6.6,3.6,8.8c2.3,2.3,5.3,3.7,8.8,3.7c3.4,0,6.6-1.3,8.8-3.6C66.3,53.8,67.7,50.7,67.7,47.4z
				 M55.3,55.8c-2.3,0-4.5-1-6-2.6c-1.5-1.6-2.5-3.7-2.5-6c0-2.3,1-4.5,2.6-6c1.6-1.5,3.7-2.5,6-2.5c2.3,0,4.5,1,6,2.6
				c1.5,1.6,2.5,3.7,2.5,6c0,2.3-1,4.5-2.6,6C59.8,54.8,57.6,55.8,55.3,55.8z"/>
			<path class="st0" d="M90.6,113.1c1.1-3,1.8-6,1.7-9.2c0-5.2-1.6-10.1-4.3-14c-2.5-3.7-6.1-6.6-10.2-8.5c1.4-14.7,0.9-29-1.7-40.6
				C73,27.3,67,17.4,58.1,14.9c-0.7-0.2-1.5-0.3-2.3-0.5c-0.1-0.1-0.1,0-0.2-0.1c-0.1,0-0.2,0.1-0.3,0c-0.8,0.1-1.6,0.3-2.3,0.4
				c-8.9,2.5-15,12.3-18.4,25.7c-2.8,11.5-3.6,25.8-2.2,40.5c-4.4,1.9-7.9,4.7-10.5,8.4c-2.8,3.9-4.5,8.8-4.5,14
				c0,3.1,0.5,6.2,1.7,9c1.1,2.9,2.8,5.5,4.8,7.7c0.8,0.8,1.9,0.8,2.8,0.1c0.3-0.3,0.5-0.6,0.5-1c0.5-2.7,2-5.1,4.2-6.8
				c2.1-1.7,4.7-2.7,7.5-2.7l1.9,0l0,0.6c0,1.8,0.7,3.6,1.9,4.8c1.2,1.2,2.9,2,4.8,2l0.3,0l0,3.2c0,1.9,0.8,3.6,2,4.9s2.9,2,4.8,2
				c1.9,0,3.6-0.8,4.9-2c1.2-1.2,2-2.8,2-4.7l0-0.1l0-3.2l0.3,0c1.8,0,3.6-0.7,4.8-1.9c1.2-1.2,2-2.8,2-4.6l0-0.1l0-0.6l1.9,0
				c2.9,0,5.5,1,7.5,2.8c2.1,1.7,3.5,4.1,4.1,6.9c0.1,0.4,0.3,0.8,0.5,1c0.8,0.8,2,0.7,2.8,0C87.8,118.6,89.5,116,90.6,113.1z
				 M38.3,41.6c3-12.1,8.2-20.9,15.6-22.9c0.5-0.1,1-0.3,1.5-0.3c0.5,0.1,1,0.2,1.5,0.3c7.4,2.1,12.5,11,15.4,23.1
				c2.7,11.6,3.2,26.2,1.4,41.1c-0.1,0.7-0.1,1.4-0.3,2.2c-0.1,0.5-0.1,0.8-0.2,1.2l0,0.1l-11.3,0l0-3.9c0-1.9-0.8-3.6-2-4.9
				s-2.9-2-4.8-2c-1.9,0-3.6,0.8-4.9,2c-1.2,1.2-2,2.9-2,4.8l0,3.9l-11.3,0l-0.1-0.2c-0.1-0.5-0.1-0.8-0.2-1.2
				c-0.1-0.7-0.1-1.4-0.2-2.1C34.8,67.8,35.5,53.2,38.3,41.6z M64.1,112.7c-0.5,0.5-1.2,0.8-2,0.8l-0.3,0.1l0-3.6l3.1,0l0.1,0.7
				C64.9,111.5,64.6,112.2,64.1,112.7z M66.9,106.1l-5.1,0l0-15.4l10.8,0.1c-0.9,5.1-1.9,10.3-3.3,15.3L66.9,106.1z M24.8,115
				c-0.8-1.2-1.4-2.5-2-3.8c-0.9-2.3-1.4-4.9-1.4-7.5c0-4.4,1.4-8.5,3.8-11.7c2-2.7,4.5-5,7.5-6.5l0.1,0.6c0.1,0.5,0.1,0.8,0.2,1.2
				c0.8,6.4,2,12.8,3.6,19.1c-2.8,0.4-5.4,1.6-7.5,3.3C27.2,111,25.8,112.8,24.8,115z M43,106l-2.3,0c-1.3-5-2.4-10.1-3.2-15.3
				l10.8,0.1L48.1,106L43,106z M47.8,113.5c-0.8,0-1.5-0.3-2-0.9c-0.5-0.5-0.8-1.2-0.8-2l0-0.6l3.1,0l0,3.6L47.8,113.5z M56.9,122.7
				c-0.5,0.5-1.3,0.9-2.1,0.9s-1.6-0.4-2.1-0.9c-0.5-0.5-0.9-1.3-0.9-2.1l0-5.2l0-7.5l0.1-25c0-0.8,0.4-1.6,0.9-2.1
				c0.5-0.5,1.3-0.9,2.1-0.9c0.8,0,1.6,0.4,2.1,0.9s0.9,1.3,0.9,2.1l-0.2,30.7l0,1.8l0,5.2l0,0.1C57.8,121.6,57.4,122.2,56.9,122.7z
				 M80.7,109.8c-2.1-1.8-4.7-2.9-7.5-3.4c1.7-6.2,3-12.6,3.9-19c0.1-0.5,0.1-0.8,0.2-1.2l0.1-0.6c3,1.6,5.6,3.8,7.4,6.6
				c2.3,3.4,3.7,7.3,3.6,11.7c0,2.7-0.5,5.2-1.5,7.5c-0.6,1.4-1.2,2.6-2,3.8C84,113.1,82.6,111.3,80.7,109.8z"/>
		</g>
	</g>
</g>
</svg>
